<svg width="622" height="486" viewBox="0 0 622 486" fill="none" xmlns="http://www.w3.org/2000/svg">
<g clip-path="url(#clip0_1634_388)">
<path opacity="0.95" d="M23.8 216.16C16.24 216.16 6.72 215.04 0 213.08L8.68001 168.56H10.36C17.36 192.36 27.44 210.56 36.4 210.56C43.12 210.56 48.44 200.48 48.44 178.64C48.44 141.12 31.36 101.36 31.36 60.76C31.36 13.16 61.32 0 83.16 0C91.84 0 100.52 1.96 102.76 3.07999L95.48 40.8801H93.52C86.8 11.76 79.8 5.04 72.52 5.04C64.4 5.04 58.52 12.3201 58.52 29.1201C58.52 60.2001 77.28 106.96 77.28 151.48C77.28 193.48 56.84 216.16 23.8 216.16ZM110.768 196.28C110.768 197.4 111.328 197.68 111.888 197.68C113.848 197.68 119.728 191.8 125.888 183.12L127.008 183.96C118.608 201.88 109.928 216.16 101.528 216.16C93.4084 216.16 79.9684 199.08 79.9684 184.24C79.9684 178.08 101.248 106.96 112.448 66.9201H102.088L102.368 65.7999L153.608 38.92H154.728C152.488 45.9201 150.248 54.6 147.448 64.68H158.368L157.808 66.9201H146.328C132.888 113.12 110.768 183.96 110.768 196.28ZM209.956 196.28C209.956 197.68 210.516 198.24 211.076 198.24C212.476 198.24 216.956 190.68 221.156 179.2L222.556 179.48C217.796 198.24 208.556 216.16 200.436 216.16C191.476 216.16 179.716 201.88 179.716 189.28C179.716 183.4 184.756 160.44 190.076 139.44L183.916 156.52C170.476 194.32 159.556 216.16 150.596 216.16C140.516 216.16 131.836 204.4 131.836 185.92C131.836 140 186.156 62.16 206.596 62.16C211.916 62.16 223.116 63.56 231.236 64.96L246.636 60.4801L248.036 61.32L230.396 111.16C226.756 121.8 209.956 183.68 209.956 196.28ZM166.276 184.8C166.276 187.32 166.556 188.16 167.116 188.16C167.956 188.16 172.996 177.52 181.116 154.84L211.076 70.5601C209.116 67.48 206.596 64.96 206.316 64.96C200.716 64.96 166.276 156.52 166.276 184.8ZM303.693 110.88C293.893 110.88 287.733 120.96 273.173 162.96L255.813 213.08H221.093L221.373 211.4L229.493 190.68C248.533 117.6 258.053 87.6401 258.053 80.36C258.053 79.2401 257.773 78.96 257.493 78.96C256.093 78.96 253.293 81.76 247.973 97.16L246.573 96.8801C251.893 76.16 260.013 62.16 268.973 62.16C276.253 62.16 288.573 78.96 288.573 90.7201C288.573 99.9601 279.053 127.12 267.013 170.8L270.653 160.44C295.853 88.48 311.813 62.16 329.453 62.16L314.333 113.4C310.973 112 307.053 110.88 303.693 110.88ZM338.815 196.28C338.815 197.4 339.375 197.68 339.935 197.68C341.895 197.68 347.775 191.8 353.935 183.12L355.055 183.96C346.655 201.88 337.975 216.16 329.575 216.16C321.455 216.16 308.015 199.08 308.015 184.24C308.015 178.08 329.295 106.96 340.495 66.9201H330.135L330.415 65.7999L381.655 38.92H382.775C380.535 45.9201 378.295 54.6 375.495 64.68H386.415L385.855 66.9201H374.375C360.935 113.12 338.815 183.96 338.815 196.28ZM422.01 49.8401C411.65 49.8401 403.53 41.44 403.53 31.08C403.53 21 411.65 12.6001 422.01 12.6001C432.37 12.6001 440.49 21 440.49 31.08C440.49 41.44 432.37 49.8401 422.01 49.8401ZM387.57 216.16C378.33 216.16 364.61 202.44 364.61 189.56C364.61 173.32 392.61 91.0001 392.61 80.36C392.61 79.2401 392.33 78.96 392.05 78.96C390.65 78.96 387.85 81.76 382.53 97.16L381.13 96.8801C386.45 76.16 394.57 62.16 403.53 62.16C410.81 62.16 423.13 77.8401 423.13 92.9601C423.13 106.96 397.09 177.52 397.09 196.28C397.09 197.68 397.65 198.24 398.21 198.24C399.61 198.24 404.09 190.68 408.29 179.2L409.69 179.48C404.93 198.24 395.69 216.16 387.57 216.16ZM460.263 189.56C460.263 179.76 488.823 106.68 488.823 92.6801C488.823 91.5601 487.703 89.88 487.143 89.88C484.623 89.88 478.463 108.08 459.423 162.96L442.063 213.08H405.663L405.943 211.4L414.063 190.68C433.103 117.6 442.623 87.6401 442.623 80.36C442.623 79.2401 442.343 78.96 442.063 78.96C440.663 78.96 437.863 81.76 432.543 97.16L431.143 96.8801C436.463 76.16 444.583 62.16 453.543 62.16C460.823 62.16 473.143 78.96 473.143 90.7201C473.143 100.24 464.463 128.52 452.143 174.44L457.183 160.44C479.303 98.0001 491.903 61.8801 498.063 61.8801C513.743 61.8801 525.223 77.84 525.223 88.4799C525.223 103.32 492.743 184.8 492.743 196.28C492.743 197.68 493.303 198.24 493.863 198.24C495.263 198.24 499.743 190.68 503.943 179.2L505.343 179.48C500.583 198.24 491.343 216.16 483.223 216.16C474.263 216.16 460.263 202.44 460.263 189.56ZM621.994 42.2801L616.394 66.36H588.114C598.194 73.64 602.954 89.6001 602.954 104.44C602.954 132.44 578.034 164.92 555.634 167.44C545.274 168.84 539.954 171.08 539.954 175.28C539.954 178.92 543.874 181.72 567.674 193.76C589.794 204.96 601.554 217 601.554 228.76C601.554 251.44 572.714 276.36 532.114 276.36C510.554 276.36 480.874 269.36 480.874 249.76C480.874 231.56 506.354 217.84 526.234 210.56C516.994 204.68 511.394 198.8 511.394 190.68C511.394 175.84 529.594 169.96 548.074 167.16C532.394 164.08 524.834 143.92 524.834 125.16C524.834 96.0401 551.994 62.16 575.234 62.16C579.434 62.16 582.794 63.28 586.154 64.96L621.994 42.2801ZM573.834 64.1201C565.714 64.1201 552.274 135.52 552.274 158.48C552.274 162.96 552.834 165.76 553.954 165.76C562.074 165.76 575.514 94.36 575.514 71.4C575.514 66.9201 574.954 64.1201 573.834 64.1201ZM501.874 243.04C501.874 262.92 523.434 272.16 543.034 272.16C562.074 272.16 582.514 263.76 582.514 251.16C582.514 239.96 565.434 230.72 544.434 220.08C538.274 217 532.674 214.2 527.914 211.4C511.674 218.96 501.874 230.72 501.874 243.04ZM153.556 482.08H110.436L110.716 480.4L118.556 459.12L150.476 295.04L151.036 273.76L151.316 272.08H191.356C216.556 272.08 230.276 293.64 230.276 318.56C230.276 352.16 203.676 388.28 167.276 391.36L154.116 459.12L153.836 480.4L153.556 482.08ZM191.916 274.32H189.956L168.116 386.88C170.356 387.72 172.596 388.56 173.156 388.56C181.276 388.56 196.956 319.68 196.956 286.08C196.956 277.12 195.836 274.32 191.916 274.32ZM293.221 386.6C293.221 435.04 257.101 485.16 232.461 485.16C214.541 485.16 205.861 452.68 205.861 429.44C205.861 381.28 241.981 331.16 266.621 331.16C284.541 331.16 293.221 363.64 293.221 386.6ZM233.861 482.08C241.141 482.08 266.621 365.32 266.621 339.56C266.621 335.64 266.061 334.24 265.221 334.24C257.941 334.24 232.461 451 232.461 476.76C232.461 480.68 233.021 482.08 233.861 482.08ZM344.081 318.84C333.721 318.84 325.601 310.44 325.601 300.08C325.601 290 333.721 281.6 344.081 281.6C354.441 281.6 362.561 290 362.561 300.08C362.561 310.44 354.441 318.84 344.081 318.84ZM309.641 485.16C300.401 485.16 286.681 471.44 286.681 458.56C286.681 442.32 314.681 360 314.681 349.36C314.681 348.24 314.401 347.96 314.121 347.96C312.721 347.96 309.921 350.76 304.601 366.16L303.201 365.88C308.521 345.16 316.641 331.16 325.601 331.16C332.881 331.16 345.201 346.84 345.201 361.96C345.201 375.96 319.161 446.52 319.161 465.28C319.161 466.68 319.721 467.24 320.281 467.24C321.681 467.24 326.161 459.68 330.361 448.2L331.761 448.48C327.001 467.24 317.761 485.16 309.641 485.16ZM382.333 458.56C382.333 448.76 410.893 375.68 410.893 361.68C410.893 360.56 409.773 358.88 409.213 358.88C406.693 358.88 400.533 377.08 381.493 431.96L364.133 482.08H327.733L328.013 480.4L336.133 459.68C355.173 386.6 364.693 356.64 364.693 349.36C364.693 348.24 364.413 347.96 364.133 347.96C362.733 347.96 359.933 350.76 354.613 366.16L353.213 365.88C358.533 345.16 366.653 331.16 375.613 331.16C382.893 331.16 395.213 347.96 395.213 359.72C395.213 369.24 386.533 397.52 374.213 443.44L379.253 429.44C401.373 367 413.973 330.88 420.133 330.88C435.813 330.88 447.293 346.84 447.293 357.48C447.293 372.32 414.813 453.8 414.813 465.28C414.813 466.68 415.373 467.24 415.933 467.24C417.333 467.24 421.813 459.68 426.013 448.2L427.413 448.48C422.653 467.24 413.413 485.16 405.293 485.16C396.333 485.16 382.333 471.44 382.333 458.56ZM465.417 465.28C465.417 466.4 465.977 466.68 466.537 466.68C468.497 466.68 474.377 460.8 480.537 452.12L481.657 452.96C473.257 470.88 464.577 485.16 456.177 485.16C448.057 485.16 434.617 468.08 434.617 453.24C434.617 447.08 455.897 375.96 467.097 335.92H456.737L457.017 334.8L508.257 307.92H509.377C507.137 314.92 504.897 323.6 502.097 333.68H513.017L512.457 335.92H500.977C487.537 382.12 465.417 452.96 465.417 465.28Z" fill="black"/>
</g>
<defs>
<clipPath id="clip0_1634_388">
<rect width="622" height="486" fill="white"/>
</clipPath>
</defs>
</svg>
