<svg width="1025" height="277" viewBox="0 0 1025 277" fill="none" xmlns="http://www.w3.org/2000/svg">
<g clip-path="url(#clip0_1541_427)">
<path opacity="0.95" d="M23.8 216.16C16.24 216.16 6.72 215.04 0 213.08L8.68 168.56H10.36C17.36 192.36 27.44 210.56 36.4 210.56C43.12 210.56 48.44 200.48 48.44 178.64C48.44 141.12 31.36 101.36 31.36 60.76C31.36 13.16 61.32 0 83.16 0C91.84 0 100.52 1.96 102.76 3.07999L95.48 40.8801H93.52C86.8 11.76 79.8 5.04 72.52 5.04C64.4 5.04 58.52 12.3201 58.52 29.1201C58.52 60.2001 77.28 106.96 77.28 151.48C77.28 193.48 56.84 216.16 23.8 216.16ZM110.768 196.28C110.768 197.4 111.328 197.68 111.888 197.68C113.848 197.68 119.728 191.8 125.888 183.12L127.008 183.96C118.608 201.88 109.928 216.16 101.528 216.16C93.4085 216.16 79.9685 199.08 79.9685 184.24C79.9685 178.08 101.248 106.96 112.448 66.9201H102.088L102.368 65.7999L153.608 38.92H154.728C152.488 45.9201 150.248 54.6 147.448 64.68H158.368L157.808 66.9201H146.328C132.888 113.12 110.768 183.96 110.768 196.28ZM209.956 196.28C209.956 197.68 210.516 198.24 211.076 198.24C212.476 198.24 216.956 190.68 221.156 179.2L222.556 179.48C217.796 198.24 208.556 216.16 200.436 216.16C191.476 216.16 179.716 201.88 179.716 189.28C179.716 183.4 184.756 160.44 190.076 139.44L183.916 156.52C170.476 194.32 159.556 216.16 150.596 216.16C140.516 216.16 131.836 204.4 131.836 185.92C131.836 140 186.156 62.16 206.596 62.16C211.916 62.16 223.116 63.56 231.236 64.96L246.636 60.4801L248.036 61.32L230.396 111.16C226.756 121.8 209.956 183.68 209.956 196.28ZM166.276 184.8C166.276 187.32 166.556 188.16 167.116 188.16C167.956 188.16 172.996 177.52 181.116 154.84L211.076 70.5601C209.116 67.48 206.596 64.96 206.316 64.96C200.716 64.96 166.276 156.52 166.276 184.8ZM303.693 110.88C293.893 110.88 287.733 120.96 273.173 162.96L255.813 213.08H221.093L221.373 211.4L229.493 190.68C248.533 117.6 258.053 87.6401 258.053 80.36C258.053 79.2401 257.773 78.96 257.493 78.96C256.093 78.96 253.293 81.76 247.973 97.16L246.573 96.8801C251.893 76.16 260.013 62.16 268.973 62.16C276.253 62.16 288.573 78.96 288.573 90.7201C288.573 99.9601 279.053 127.12 267.013 170.8L270.653 160.44C295.853 88.48 311.813 62.16 329.453 62.16L314.333 113.4C310.973 112 307.053 110.88 303.693 110.88ZM338.815 196.28C338.815 197.4 339.375 197.68 339.935 197.68C341.895 197.68 347.775 191.8 353.935 183.12L355.055 183.96C346.655 201.88 337.975 216.16 329.575 216.16C321.455 216.16 308.015 199.08 308.015 184.24C308.015 178.08 329.295 106.96 340.495 66.9201H330.135L330.415 65.7999L381.655 38.92H382.775C380.535 45.9201 378.295 54.6 375.495 64.68H386.415L385.855 66.9201H374.375C360.935 113.12 338.815 183.96 338.815 196.28ZM422.01 49.8401C411.65 49.8401 403.53 41.44 403.53 31.08C403.53 21 411.65 12.6001 422.01 12.6001C432.37 12.6001 440.49 21 440.49 31.08C440.49 41.44 432.37 49.8401 422.01 49.8401ZM387.57 216.16C378.33 216.16 364.61 202.44 364.61 189.56C364.61 173.32 392.61 91.0001 392.61 80.36C392.61 79.2401 392.33 78.96 392.05 78.96C390.65 78.96 387.85 81.76 382.53 97.16L381.13 96.8801C386.45 76.16 394.57 62.16 403.53 62.16C410.81 62.16 423.13 77.8401 423.13 92.9601C423.13 106.96 397.09 177.52 397.09 196.28C397.09 197.68 397.65 198.24 398.21 198.24C399.61 198.24 404.09 190.68 408.29 179.2L409.69 179.48C404.93 198.24 395.69 216.16 387.57 216.16ZM460.263 189.56C460.263 179.76 488.823 106.68 488.823 92.6801C488.823 91.5601 487.703 89.88 487.143 89.88C484.623 89.88 478.463 108.08 459.423 162.96L442.063 213.08H405.663L405.943 211.4L414.063 190.68C433.103 117.6 442.623 87.6401 442.623 80.36C442.623 79.2401 442.343 78.96 442.063 78.96C440.663 78.96 437.863 81.76 432.543 97.16L431.143 96.8801C436.463 76.16 444.583 62.16 453.543 62.16C460.823 62.16 473.143 78.96 473.143 90.7201C473.143 100.24 464.463 128.52 452.143 174.44L457.183 160.44C479.303 98.0001 491.903 61.8801 498.063 61.8801C513.743 61.8801 525.223 77.84 525.223 88.4799C525.223 103.32 492.743 184.8 492.743 196.28C492.743 197.68 493.303 198.24 493.863 198.24C495.263 198.24 499.743 190.68 503.943 179.2L505.343 179.48C500.583 198.24 491.343 216.16 483.223 216.16C474.263 216.16 460.263 202.44 460.263 189.56ZM621.994 42.2801L616.394 66.36H588.114C598.194 73.64 602.954 89.6001 602.954 104.44C602.954 132.44 578.034 164.92 555.634 167.44C545.274 168.84 539.954 171.08 539.954 175.28C539.954 178.92 543.874 181.72 567.674 193.76C589.794 204.96 601.554 217 601.554 228.76C601.554 251.44 572.714 276.36 532.114 276.36C510.554 276.36 480.874 269.36 480.874 249.76C480.874 231.56 506.354 217.84 526.234 210.56C516.994 204.68 511.394 198.8 511.394 190.68C511.394 175.84 529.594 169.96 548.074 167.16C532.394 164.08 524.834 143.92 524.834 125.16C524.834 96.0401 551.994 62.16 575.234 62.16C579.434 62.16 582.794 63.28 586.154 64.96L621.994 42.2801ZM573.834 64.1201C565.714 64.1201 552.274 135.52 552.274 158.48C552.274 162.96 552.834 165.76 553.954 165.76C562.074 165.76 575.514 94.36 575.514 71.4C575.514 66.9201 574.954 64.1201 573.834 64.1201ZM501.874 243.04C501.874 262.92 523.434 272.16 543.034 272.16C562.074 272.16 582.514 263.76 582.514 251.16C582.514 239.96 565.434 230.72 544.434 220.08C538.274 217 532.674 214.2 527.914 211.4C511.674 218.96 501.874 230.72 501.874 243.04ZM664.884 213.08H621.764L622.044 211.4L629.884 190.12L661.804 26.04L662.364 4.76L662.644 3.07999H702.684C727.884 3.07999 741.604 24.64 741.604 49.56C741.604 83.1601 715.004 119.28 678.604 122.36L665.444 190.12L665.164 211.4L664.884 213.08ZM703.244 5.31999H701.284L679.444 117.88C681.684 118.72 683.924 119.56 684.484 119.56C692.604 119.56 708.284 50.68 708.284 17.08C708.284 8.11999 707.164 5.31999 703.244 5.31999ZM804.549 117.6C804.549 166.04 768.429 216.16 743.789 216.16C725.869 216.16 717.189 183.68 717.189 160.44C717.189 112.28 753.309 62.16 777.949 62.16C795.869 62.16 804.549 94.6401 804.549 117.6ZM745.189 213.08C752.469 213.08 777.949 96.32 777.949 70.5601C777.949 66.6401 777.389 65.2401 776.549 65.2401C769.269 65.2401 743.789 182 743.789 207.76C743.789 211.68 744.349 213.08 745.189 213.08ZM855.409 49.8401C845.049 49.8401 836.929 41.44 836.929 31.08C836.929 21 845.049 12.6001 855.409 12.6001C865.769 12.6001 873.889 21 873.889 31.08C873.889 41.44 865.769 49.8401 855.409 49.8401ZM820.969 216.16C811.729 216.16 798.009 202.44 798.009 189.56C798.009 173.32 826.009 91.0001 826.009 80.36C826.009 79.2401 825.729 78.96 825.449 78.96C824.049 78.96 821.249 81.76 815.929 97.16L814.529 96.8801C819.849 76.16 827.969 62.16 836.929 62.16C844.209 62.16 856.529 77.8401 856.529 92.9601C856.529 106.96 830.489 177.52 830.489 196.28C830.489 197.68 831.049 198.24 831.609 198.24C833.009 198.24 837.489 190.68 841.689 179.2L843.089 179.48C838.329 198.24 829.089 216.16 820.969 216.16ZM893.662 189.56C893.662 179.76 922.222 106.68 922.222 92.6801C922.222 91.5601 921.102 89.88 920.542 89.88C918.022 89.88 911.862 108.08 892.822 162.96L875.462 213.08H839.062L839.342 211.4L847.462 190.68C866.502 117.6 876.022 87.6401 876.022 80.36C876.022 79.2401 875.742 78.96 875.462 78.96C874.062 78.96 871.262 81.76 865.942 97.16L864.542 96.8801C869.862 76.16 877.982 62.16 886.942 62.16C894.222 62.16 906.542 78.96 906.542 90.7201C906.542 100.24 897.862 128.52 885.542 174.44L890.582 160.44C912.702 98.0001 925.302 61.8801 931.462 61.8801C947.142 61.8801 958.622 77.84 958.622 88.4799C958.622 103.32 926.142 184.8 926.142 196.28C926.142 197.68 926.702 198.24 927.262 198.24C928.662 198.24 933.142 190.68 937.342 179.2L938.742 179.48C933.982 198.24 924.742 216.16 916.622 216.16C907.662 216.16 893.662 202.44 893.662 189.56ZM976.745 196.28C976.745 197.4 977.305 197.68 977.865 197.68C979.825 197.68 985.705 191.8 991.865 183.12L992.985 183.96C984.585 201.88 975.905 216.16 967.505 216.16C959.385 216.16 945.945 199.08 945.945 184.24C945.945 178.08 967.225 106.96 978.425 66.9201H968.065L968.345 65.7999L1019.59 38.92H1020.71C1018.47 45.9201 1016.23 54.6 1013.43 64.68H1024.35L1023.79 66.9201H1012.31C998.865 113.12 976.745 183.96 976.745 196.28Z" fill="black"/>
</g>
<defs>
<clipPath id="clip0_1541_427">
<rect width="1025" height="277" fill="white"/>
</clipPath>
</defs>
</svg>
